<svg width="120" height="120" viewBox="0 0 120 120" fill="none" xmlns="http://www.w3.org/2000/svg">
<path fill-rule="evenodd" clip-rule="evenodd" d="M0 60C0 26.8629 26.8629 0 60 0C93.1371 0 120 26.8629 120 60C120 93.1371 93.1371 120 60 120C26.8629 120 0 93.1371 0 60ZM10.3125 60C10.3125 32.5584 32.5584 10.3125 60 10.3125C87.4417 10.3125 109.688 32.5584 109.688 60C109.688 87.4417 87.4417 109.688 60 109.688C32.5584 109.688 10.3125 87.4417 10.3125 60ZM60.1172 19.9219C37.9179 19.9219 19.9219 37.9179 19.9219 60.1172C19.9219 82.3164 37.9179 100.312 60.1172 100.312C82.3164 100.312 100.312 82.3164 100.312 60.1172C100.312 37.9179 82.3164 19.9219 60.1172 19.9219ZM60.2344 30C43.5364 30 30 43.5364 30 60.2344C30 76.9324 43.5364 90.4688 60.2344 90.4688C76.9324 90.4688 90.4688 76.9324 90.4688 60.2344C90.4688 43.5364 76.9324 30 60.2344 30ZM39.6094 60C39.6094 48.7386 48.7386 39.6094 60 39.6094C71.2614 39.6094 80.3906 48.7386 80.3906 60C80.3906 71.2614 71.2614 80.3906 60 80.3906C48.7386 80.3906 39.6094 71.2614 39.6094 60Z" fill="#FF0000"/>
</svg>
