<svg width="48" height="48" viewBox="0 0 48 48" fill="none" xmlns="http://www.w3.org/2000/svg">
<g clip-path="url(#clip0_711_15)">
<path fill-rule="evenodd" clip-rule="evenodd" d="M0 24C0 10.7451 10.7451 0 24 0C37.2549 0 48 10.7451 48 24C48 37.2549 37.2549 48 24 48C10.7451 48 0 37.2549 0 24ZM4.125 24C4.125 13.0233 13.0233 4.125 24 4.125C34.9767 4.125 43.875 13.0233 43.875 24C43.875 34.9767 34.9767 43.875 24 43.875C13.0233 43.875 4.125 34.9767 4.125 24ZM24.0469 7.96875C15.1671 7.96875 7.96875 15.1671 7.96875 24.0469C7.96875 32.9266 15.1671 40.125 24.0469 40.125C32.9266 40.125 40.125 32.9266 40.125 24.0469C40.125 15.1671 32.9266 7.96875 24.0469 7.96875ZM24.0938 12C17.4145 12 12 17.4145 12 24.0938C12 30.773 17.4145 36.1875 24.0938 36.1875C30.773 36.1875 36.1875 30.773 36.1875 24.0938C36.1875 17.4145 30.773 12 24.0938 12ZM15.8438 24C15.8438 19.4955 19.4955 15.8438 24 15.8438C28.5045 15.8438 32.1562 19.4955 32.1562 24C32.1562 28.5045 28.5045 32.1562 24 32.1562C19.4955 32.1562 15.8438 28.5045 15.8438 24Z" fill="#FF0000"/>
</g>
<defs>
<clipPath id="clip0_711_15">
<rect width="48" height="48" fill="white"/>
</clipPath>
</defs>
</svg>
