<svg width="96" height="96" viewBox="0 0 96 96" fill="none" xmlns="http://www.w3.org/2000/svg">
<path fill-rule="evenodd" clip-rule="evenodd" d="M0 48C0 21.4903 21.4903 0 48 0C74.5097 0 96 21.4903 96 48C96 74.5097 74.5097 96 48 96C21.4903 96 0 74.5097 0 48ZM8.25 48C8.25 26.0467 26.0467 8.25 48 8.25C69.9533 8.25 87.75 26.0467 87.75 48C87.75 69.9533 69.9533 87.75 48 87.75C26.0467 87.75 8.25 69.9533 8.25 48ZM48.0938 15.9375C30.3343 15.9375 15.9375 30.3343 15.9375 48.0938C15.9375 65.8532 30.3343 80.25 48.0938 80.25C65.8532 80.25 80.25 65.8532 80.25 48.0938C80.25 30.3343 65.8532 15.9375 48.0938 15.9375ZM48.1875 24C34.8291 24 24 34.8291 24 48.1875C24 61.5459 34.8291 72.375 48.1875 72.375C61.5459 72.375 72.375 61.5459 72.375 48.1875C72.375 34.8291 61.5459 24 48.1875 24ZM31.6875 48C31.6875 38.9909 38.9909 31.6875 48 31.6875C57.0091 31.6875 64.3125 38.9909 64.3125 48C64.3125 57.0091 57.0091 64.3125 48 64.3125C38.9909 64.3125 31.6875 57.0091 31.6875 48Z" fill="#FF0000"/>
</svg>
