<svg width="512" height="512" viewBox="0 0 512 512" fill="none" xmlns="http://www.w3.org/2000/svg">
<path fill-rule="evenodd" clip-rule="evenodd" d="M0 256C0 114.615 114.615 0 256 0C397.385 0 512 114.615 512 256C512 397.385 397.385 512 256 512C114.615 512 0 397.385 0 256ZM44 256C44 138.916 138.916 44 256 44C373.084 44 468 138.916 468 256C468 373.084 373.084 468 256 468C138.916 468 44 373.084 44 256ZM256.5 85C161.783 85 85 161.783 85 256.5C85 351.217 161.783 428 256.5 428C351.217 428 428 351.217 428 256.5C428 161.783 351.217 85 256.5 85ZM257 128C185.755 128 128 185.755 128 257C128 328.245 185.755 386 257 386C328.245 386 386 328.245 386 257C386 185.755 328.245 128 257 128ZM169 256C169 207.951 207.951 169 256 169C304.049 169 343 207.951 343 256C343 304.049 304.049 343 256 343C207.951 343 169 304.049 169 256Z" fill="#FF0000"/>
</svg>
