<svg width="33" height="32" viewBox="0 0 33 32" fill="none" xmlns="http://www.w3.org/2000/svg">
<path d="M16.4638 21.3333C19.4093 21.3333 21.7972 18.9455 21.7972 16C21.7972 13.0544 19.4093 10.6666 16.4638 10.6666C13.5183 10.6666 11.1305 13.0544 11.1305 16C11.1305 18.9455 13.5183 21.3333 16.4638 21.3333Z" stroke="black" stroke-width="2" stroke-linecap="round" stroke-linejoin="round"/>
<path d="M21.7972 10.6667V17.3333C21.7972 18.3942 22.2186 19.4116 22.9687 20.1617C23.7189 20.9119 24.7363 21.3333 25.7972 21.3333C26.858 21.3333 27.8755 20.9119 28.6256 20.1617C29.3757 19.4116 29.7972 18.3942 29.7972 17.3333V16C29.797 12.9907 28.7788 10.07 26.9082 7.71269C25.0376 5.35543 22.4246 3.70029 19.494 3.01638C16.5635 2.33248 13.4878 2.66004 10.767 3.94581C8.04619 5.23158 5.84037 7.39993 4.50818 10.0983C3.176 12.7966 2.79579 15.8663 3.4294 18.8081C4.063 21.75 5.67314 24.391 7.99801 26.3017C10.3229 28.2124 13.2257 29.2805 16.2346 29.3322C19.2434 29.3839 22.1813 28.4163 24.5705 26.5867" stroke="black" stroke-width="2" stroke-linecap="round" stroke-linejoin="round"/>
</svg>
