<svg width="32" height="32" viewBox="0 0 32 32" fill="none" xmlns="http://www.w3.org/2000/svg">
<path d="M18.6667 2.66663H8.00004C7.2928 2.66663 6.61452 2.94758 6.11442 3.44767C5.61433 3.94777 5.33337 4.62605 5.33337 5.33329V26.6666C5.33337 27.3739 5.61433 28.0521 6.11442 28.5522C6.61452 29.0523 7.2928 29.3333 8.00004 29.3333H24C24.7073 29.3333 25.3856 29.0523 25.8857 28.5522C26.3858 28.0521 26.6667 27.3739 26.6667 26.6666V10.6666L18.6667 2.66663Z" stroke="black" stroke-width="2" stroke-linecap="round" stroke-linejoin="round"/>
<path d="M18.6666 2.66663V10.6666H26.6666" stroke="black" stroke-width="2" stroke-linecap="round" stroke-linejoin="round"/>
<path d="M21.3333 17.3334H10.6666" stroke="black" stroke-width="2" stroke-linecap="round" stroke-linejoin="round"/>
<path d="M21.3333 22.6666H10.6666" stroke="black" stroke-width="2" stroke-linecap="round" stroke-linejoin="round"/>
<path d="M13.3333 12H12H10.6666" stroke="black" stroke-width="2" stroke-linecap="round" stroke-linejoin="round"/>
</svg>
