<svg width="33" height="32" viewBox="0 0 33 32" fill="none" xmlns="http://www.w3.org/2000/svg">
<path d="M9.87504 14.6666L15.2084 2.66663C16.2692 2.66663 17.2867 3.08805 18.0368 3.8382C18.7869 4.58834 19.2084 5.60576 19.2084 6.66663V12H26.755C27.1416 11.9956 27.5245 12.0753 27.8771 12.2336C28.2298 12.3919 28.5439 12.6249 28.7975 12.9166C29.0512 13.2084 29.2384 13.5517 29.3462 13.923C29.4539 14.2942 29.4797 14.6844 29.4217 15.0666L27.5817 27.0666C27.4853 27.7025 27.1623 28.2821 26.6722 28.6986C26.1822 29.1152 25.5581 29.3406 24.915 29.3333H9.87504M9.87504 14.6666V29.3333M9.87504 14.6666H5.87504C5.1678 14.6666 4.48952 14.9476 3.98942 15.4477C3.48933 15.9478 3.20837 16.626 3.20837 17.3333V26.6666C3.20837 27.3739 3.48933 28.0521 3.98942 28.5522C4.48952 29.0523 5.1678 29.3333 5.87504 29.3333H9.87504" stroke="black" stroke-width="2" stroke-linecap="round" stroke-linejoin="round"/>
</svg>
